<?xml version="1.0" encoding="UTF-8" standalone="no"?>
<!-- Created with Inkscape (http://www.inkscape.org/) -->

<svg
   width="512"
   height="512"
   viewBox="0 0 512 512"
   version="1.1"
   id="svg5"
   xml:space="preserve"
   inkscape:version="1.2.2 (b0a8486541, 2022-12-01)"
   sodipodi:docname="sticker-oxford.svg"
   xmlns:inkscape="http://www.inkscape.org/namespaces/inkscape"
   xmlns:sodipodi="http://sodipodi.sourceforge.net/DTD/sodipodi-0.dtd"
   xmlns="http://www.w3.org/2000/svg"
   xmlns:svg="http://www.w3.org/2000/svg"><sodipodi:namedview
     id="namedview7"
     pagecolor="#ffffff"
     bordercolor="#000000"
     borderopacity="0.25"
     inkscape:showpageshadow="2"
     inkscape:pageopacity="0.0"
     inkscape:pagecheckerboard="0"
     inkscape:deskcolor="#d1d1d1"
     inkscape:document-units="px"
     showgrid="false"
     inkscape:zoom="2.8284271"
     inkscape:cx="104.12147"
     inkscape:cy="131.87541"
     inkscape:window-width="3072"
     inkscape:window-height="1659"
     inkscape:window-x="0"
     inkscape:window-y="0"
     inkscape:window-maximized="1"
     inkscape:current-layer="layer7" /><defs
     id="defs2"><filter
       inkscape:collect="always"
       style="color-interpolation-filters:sRGB"
       id="filter954"
       x="-0.048657536"
       y="-0.047360001"
       width="1.0973151"
       height="1.09472"><feGaussianBlur
         inkscape:collect="always"
         stdDeviation="0.47359972"
         id="feGaussianBlur956" /></filter><filter
       inkscape:collect="always"
       style="color-interpolation-filters:sRGB"
       id="filter964"
       x="-0.048657535"
       y="-0.047360001"
       width="1.0973151"
       height="1.09472"><feGaussianBlur
         inkscape:collect="always"
         stdDeviation="0.33151972"
         id="feGaussianBlur962" /></filter></defs><g
     inkscape:label="Background"
     inkscape:groupmode="layer"
     id="layer1"
     transform="translate(-6.9347189)"><path
       sodipodi:type="star"
       style="fill:#182132;fill-opacity:1;stroke:#9976ea;stroke-width:7.84174;stroke-dasharray:none;stroke-opacity:1"
       id="path370"
       inkscape:flatsided="true"
       sodipodi:sides="6"
       sodipodi:cx="49.263428"
       sodipodi:cy="47.501278"
       sodipodi:r1="195.61963"
       sodipodi:r2="169.41158"
       sodipodi:arg1="0.8692818"
       sodipodi:arg2="1.3928806"
       inkscape:rounded="0"
       inkscape:randomized="0"
       d="M 175.51151,196.92839 -17.020205,231.54888 -143.26829,82.121768 -76.984653,-101.92583 115.54706,-136.54632 241.79514,12.880788 Z"
       transform="matrix(0.97495933,0.82198335,-0.82198335,0.97495933,253.95014,169.5052)" /></g><g
     inkscape:groupmode="layer"
     id="layer2"
     inkscape:label="Header"><text
       xml:space="preserve"
       style="font-style:normal;font-variant:normal;font-weight:300;font-stretch:normal;font-size:53.3333px;font-family:'Amazon Ember';-inkscape-font-specification:'Amazon Ember, Light';font-variant-ligatures:normal;font-variant-caps:normal;font-variant-numeric:normal;font-variant-east-asian:normal;fill:#ffffff;fill-opacity:1;stroke:none;stroke-width:10;stroke-dasharray:none;stroke-opacity:1"
       x="123.68007"
       y="361.74606"
       id="text2749"
       inkscape:label="User Group"><tspan
         sodipodi:role="line"
         id="tspan2747"
         x="123.68007"
         y="361.74606"
         style="font-style:normal;font-variant:normal;font-weight:300;font-stretch:normal;font-size:53.3333px;font-family:'Amazon Ember';-inkscape-font-specification:'Amazon Ember, Light';font-variant-ligatures:normal;font-variant-caps:normal;font-variant-numeric:normal;font-variant-east-asian:normal">User Group</tspan></text></g><g
     inkscape:groupmode="layer"
     id="layer4"
     inkscape:label="Body"><text
       xml:space="preserve"
       style="font-style:normal;font-variant:normal;font-weight:normal;font-stretch:normal;font-size:53.3333px;font-family:'Amazon Ember';-inkscape-font-specification:'Amazon Ember, Normal';font-variant-ligatures:normal;font-variant-position:normal;font-variant-caps:normal;font-variant-numeric:normal;font-variant-east-asian:normal;fill:#9976ea;fill-opacity:1;stroke-width:10"
       x="171.62672"
       y="415.54678"
       id="text1126"
       inkscape:label="Oxford"><tspan
         sodipodi:role="line"
         id="tspan13224"
         x="171.62672"
         y="415.54678">Oxford</tspan></text></g><g
     inkscape:groupmode="layer"
     id="layer3"
     inkscape:label="Flourish"><text
       xml:space="preserve"
       style="font-style:normal;font-variant:normal;font-weight:300;font-stretch:normal;font-size:53.3333px;font-family:'Amazon Ember';-inkscape-font-specification:'Amazon Ember, Light';font-variant-ligatures:normal;font-variant-caps:normal;font-variant-numeric:normal;font-variant-east-asian:normal;mix-blend-mode:normal;fill:#ffffff;stroke-width:10;filter:url(#filter954)"
       x="147.47826"
       y="132.31714"
       id="text952"
       inkscape:label="Plus"><tspan
         sodipodi:role="line"
         id="tspan950"
         x="147.47826"
         y="132.31714">+</tspan></text><text
       xml:space="preserve"
       style="font-style:normal;font-variant:normal;font-weight:300;font-stretch:normal;font-size:37.3333px;font-family:'Amazon Ember';-inkscape-font-specification:'Amazon Ember, Light';font-variant-ligatures:normal;font-variant-caps:normal;font-variant-numeric:normal;font-variant-east-asian:normal;mix-blend-mode:normal;fill:#ffffff;stroke-width:10;filter:url(#filter964)"
       x="106.95652"
       y="169.38875"
       id="text960"
       inkscape:label="Small Plus"><tspan
         sodipodi:role="line"
         id="tspan958"
         x="106.95652"
         y="169.38875">+</tspan></text><text
       xml:space="preserve"
       style="font-style:normal;font-variant:normal;font-weight:300;font-stretch:normal;font-size:53.3333px;font-family:'Amazon Ember';-inkscape-font-specification:'Amazon Ember, Light';font-variant-ligatures:normal;font-variant-caps:normal;font-variant-numeric:normal;font-variant-east-asian:normal;mix-blend-mode:normal;fill:#9976ea;fill-opacity:1;stroke-width:10;filter:url(#filter954)"
       x="418.62552"
       y="316.92386"
       id="text968"
       inkscape:label="Plus Purple"><tspan
         sodipodi:role="line"
         id="tspan966"
         x="418.62552"
         y="316.92386">+</tspan></text><text
       xml:space="preserve"
       style="font-style:normal;font-variant:normal;font-weight:300;font-stretch:normal;font-size:37.3333px;font-family:'Amazon Ember';-inkscape-font-specification:'Amazon Ember, Light';font-variant-ligatures:normal;font-variant-caps:normal;font-variant-numeric:normal;font-variant-east-asian:normal;mix-blend-mode:normal;fill:#9976ea;fill-opacity:1;stroke-width:10;filter:url(#filter964)"
       x="400.75565"
       y="341.33649"
       id="text972"
       inkscape:label="Small Plus Purple"><tspan
         sodipodi:role="line"
         id="tspan970"
         x="400.75565"
         y="341.33649">+</tspan></text><path
       id="path1202"
       style="fill:#ffffff;fill-opacity:1;stroke-width:1.58028"
       inkscape:label="Cloud 1"
       d="m 64.403757,326.54144 c -8.240888,0 -15.216356,4.93218 -18.568265,11.90145 -0.228876,-0.1576 -0.462807,-0.30908 -0.700965,-0.45452 v 3.66174 c 0.05278,0.0501 0.106511,0.0994 0.15785,0.15099 l 1.728238,1.77784 0.839786,-2.32127 c 2.487688,-6.71617 8.944467,-11.5558 16.543356,-11.5558 9.753269,0 17.629895,7.88311 17.629895,17.63022 0,0.72223 -0.05557,1.43202 -0.148176,2.17277 l -0.246764,1.77784 h 1.876417 c 6.043325,0 10.913794,4.87046 10.913794,10.91379 0,6.04331 -4.870469,10.91379 -10.913794,10.91379 H 45.134527 v 3.16043 h 38.380602 c 7.753248,0 14.074537,-6.32099 14.074537,-14.07422 0,-7.1915 -5.51874,-12.90757 -12.494163,-13.72857 0.02393,-0.38273 0.09889,-0.74077 0.09889,-1.13583 0,-11.457 -9.333622,-20.79065 -20.790632,-20.79065 z" /><path
       id="path1202-3"
       style="fill:#9976ea;fill-opacity:1;stroke-width:2.50157"
       inkscape:label="Cloud 2"
       d="m 467.39121,138.90056 c -9.02127,2.64715 -16.3699,9.16524 -20.40283,17.55051 -2.82408,-1.94458 -6.09764,-3.36147 -9.77179,-3.36147 -9.32226,0 -16.75855,7.37752 -17.27643,16.57273 -9.32222,3.36149 -16.1036,12.05817 -16.1036,22.51393 0,13.32864 10.82723,24.1559 24.15589,24.1559 h 39.39876 v -5.00293 h -39.39925 c -10.63165,0 -19.15247,-8.53111 -19.15247,-19.15297 0,-8.84342 5.96097,-16.28956 14.07151,-18.52729 l 1.87604,-0.46864 -0.078,-2.03257 c -0.009,-0.35176 0,-0.52763 0,-0.54716 0,-6.9477 5.55986,-12.50807 12.50757,-12.50807 3.47873,0 6.64503,1.39722 8.91204,3.67406 l 2.73628,2.8143 1.32888,-3.67405 c 2.90737,-7.84921 9.24147,-14.07508 17.19742,-16.79841 z" /></g><g
     inkscape:groupmode="layer"
     id="layer7"
     inkscape:label="logo"
     transform="translate(180.5,-39.277344)"
     style="stroke-width:5;stroke-dasharray:none"><path
       id="path11394"
       style="fill:none;fill-opacity:1;stroke:#a166ff;stroke-width:5;stroke-dasharray:none;stroke-opacity:1"
       d="M 32.947943 221.18946 A 73.159812 13.171204 0 0 1 3.2072694 212.49716 " /><path
       id="path13238"
       style="fill:none;fill-opacity:1;stroke:#a166ff;stroke-width:5;stroke-dasharray:none;stroke-opacity:1"
       d="M 82.82682 223.5803 A 73.159812 13.171204 0 0 1 75.5 223.64652 A 73.159812 13.171204 0 0 1 39.336581 221.92488 " /><path
       id="path13228"
       style="fill:none;fill-opacity:1;stroke:#a166ff;stroke-width:5;stroke-dasharray:none;stroke-opacity:1"
       d="M 147.79273 212.49716 A 73.159812 13.171204 0 0 1 107.40351 222.32819 " /><path
       style="fill:none;fill-opacity:1;stroke:#ffffff;stroke-width:5;stroke-dasharray:none;stroke-opacity:1"
       d="m 261.68953,55.170781 a 54.74938,50.083569 0 0 1 41.26318,48.540339 v 0 a 54.74938,50.083569 0 0 1 -0.005,0.71205"
       id="path11773"
       transform="translate(-172.70262,80.856837)" /><path
       style="fill:none;fill-opacity:1;stroke:#ffffff;stroke-width:5;stroke-dasharray:none;stroke-opacity:1"
       d="m 193.45895,104.42317 a 54.74938,50.083569 0 0 1 -0.005,-0.71205 54.74938,50.083569 0 0 1 41.12246,-48.507439"
       id="path11771"
       transform="translate(-172.70262,80.856837)" /><path
       style="fill:none;fill-opacity:1;stroke:#ffffff;stroke-width:5;stroke-dasharray:none;stroke-opacity:1"
       d="M 311.47904,126.57822 A 32.276783,33.512747 0 0 1 302.9476,104.35177"
       id="path11769"
       transform="translate(-172.70262,80.856837)" /><path
       style="fill:none;fill-opacity:1;stroke:#ffffff;stroke-width:5;stroke-dasharray:none;stroke-opacity:1"
       d="m 184.9262,126.59548 a 32.276783,33.512747 0 0 0 8.53143,-22.22643"
       id="path11767"
       transform="translate(-172.70262,80.856837)" /><path
       style="fill:none;fill-opacity:1;stroke:#ffffff;stroke-width:5;stroke-dasharray:none;stroke-opacity:1"
       d="m 234.96164,39.819855 a 13.283644,11.47111 0 0 1 13.28338,-11.399243 13.283644,11.47111 0 0 1 13.28339,11.399497"
       id="path11765"
       transform="translate(-172.70262,80.856837)" /><path
       style="fill:none;fill-opacity:1;stroke:#ffffff;stroke-width:5.17526;stroke-dasharray:none;stroke-opacity:1"
       d="m 62.25967,138.85866 v -18.23787 0"
       id="path11763" /><path
       style="fill:none;fill-opacity:1;stroke:#ffffff;stroke-width:5.16486;stroke-dasharray:none;stroke-opacity:1"
       d="m 88.81602,120.62228 v 18.19573"
       id="path11501" /><path
       id="path11442-8"
       style="fill:none;fill-opacity:1;stroke:#a166ff;stroke-width:5;stroke-linecap:square;stroke-linejoin:miter;stroke-miterlimit:1;stroke-dasharray:none;stroke-opacity:1;paint-order:fill markers stroke"
       d="m 181.38994,210.80926 a 16.148387,9.2377219 66.587333 0 1 -2.3e-4,-0.0877 v 0 a 16.148387,9.2377219 66.587333 0 1 10.62677,-8.02359 16.148387,9.2377219 66.587333 0 1 10.63677,20.04408 16.148387,9.2377219 66.587333 0 1 -1.8e-4,0.0878 m -7.8e-4,28.74229 v -27.50278 m -21.25998,15.47163 v -27.50277"
       inkscape:label="doorway1"
       transform="translate(-172.70262,80.856837)" /><path
       id="path11442-8-5"
       style="fill:none;fill-opacity:1;stroke:#ffffff;stroke-width:5;stroke-linecap:square;stroke-linejoin:miter;stroke-miterlimit:1;stroke-dasharray:none;stroke-opacity:1;paint-order:fill markers stroke"
       d="m 313.55097,211.03703 a 9.2377219,16.148387 23.412667 0 0 2.2e-4,-0.0877 v 0 a 9.2377219,16.148387 23.412667 0 0 -10.62676,-8.02359 9.2377219,16.148387 23.412667 0 0 -10.63678,20.04408 9.2377219,16.148387 23.412667 0 0 1.8e-4,0.0878 m 7.8e-4,28.74229 v -27.50278 m 21.25999,15.47163 v -27.50277"
       inkscape:label="doorway1"
       transform="translate(-172.70262,80.856837)" /><path
       id="path11442-7"
       style="fill:none;fill-opacity:1;stroke:#ffffff;stroke-width:5;stroke-linecap:square;stroke-linejoin:miter;stroke-miterlimit:1;stroke-dasharray:none;stroke-opacity:1;paint-order:fill markers stroke"
       d="m 61.66462,309.89981 a 13.932518,13.63517 89.973568 0 1 -2.9e-4,-0.087 v 0 a 13.932518,13.63517 89.973568 0 1 13.62874,-13.9388 13.932518,13.63517 89.973568 0 1 13.6416,13.92622 13.932518,13.63517 89.973568 0 1 -2.4e-4,0.0873 m -0.001,28.54099 v -27.30974 m -27.26577,27.30974 v -27.30974"
       inkscape:label="doorway1" /><path
       id="path11690"
       style="fill:none;fill-opacity:1;stroke:#ffffff;stroke-width:5;stroke-linecap:square;stroke-linejoin:miter;stroke-miterlimit:1;stroke-dasharray:none;stroke-opacity:1;paint-order:fill markers stroke"
       d="m 180.4082,155.13558 a 11.482944,7.0458085 65.411505 0 1 -1.7e-4,-0.0633 v 0 a 11.482944,7.0458085 65.411505 0 1 7.98859,-6.23748 11.482944,7.0458085 65.411505 0 1 7.99613,14.01216 11.482944,7.0458085 65.411505 0 1 -1.4e-4,0.0633 m -4.9e-4,20.73687 v -19.84252 m -15.98206,12.05998 v -19.84251"
       inkscape:label="doorwaytop4"
       transform="translate(-172.70262,80.856837)" /><path
       id="path11690-7"
       style="fill:none;fill-opacity:1;stroke:#ffffff;stroke-width:5;stroke-linecap:square;stroke-linejoin:miter;stroke-miterlimit:1;stroke-dasharray:none;stroke-opacity:1;paint-order:fill markers stroke"
       d="m 316.22321,154.76191 a 7.0457986,11.482841 24.589052 0 0 1.7e-4,-0.0633 v 0 a 7.0457986,11.482841 24.589052 0 0 -7.98861,-6.23741 7.0457986,11.482841 24.589052 0 0 -7.99613,14.012 7.0457986,11.482841 24.589052 0 0 1.4e-4,0.0633 m 4.9e-4,20.73665 v -19.8423 m 15.98207,12.05985 v -19.84229"
       inkscape:label="doorwaytop3"
       transform="translate(-172.70262,80.856837)" /><path
       id="path11692"
       style="fill:none;fill-opacity:1;stroke:#ffffff;stroke-width:5;stroke-linecap:square;stroke-linejoin:miter;stroke-miterlimit:1;stroke-dasharray:none;stroke-opacity:1;paint-order:fill markers stroke"
       d="m 44.41155,251.78665 a 10.056814,10.002831 89.894048 0 1 -2.1e-4,-0.0628 v 0 a 10.056814,10.002831 89.894048 0 1 9.99812,-10.06135 10.056814,10.002831 89.894048 0 1 10.00754,10.05228 10.056814,10.002831 89.894048 0 1 -1.7e-4,0.063 m -6.2e-4,20.60155 v -19.7128 m -20.00232,19.7128 v -19.7128"
       inkscape:label="doorwaytop2" /><path
       id="path11694"
       style="fill:none;fill-opacity:1;stroke:#a166ff;stroke-width:5;stroke-linecap:square;stroke-linejoin:miter;stroke-miterlimit:1;stroke-dasharray:none;stroke-opacity:1;paint-order:fill markers stroke"
       d="m 86.03963,251.78665 a 10.056814,10.002831 89.894048 0 1 -2.1e-4,-0.0628 v 0 a 10.056814,10.002831 89.894048 0 1 9.99811,-10.06135 10.056814,10.002831 89.894048 0 1 10.00754,10.05228 10.056814,10.002831 89.894048 0 1 -1.7e-4,0.063 m -6.2e-4,20.60155 v -19.7128 m -20.00232,19.7128 v -19.7128"
       inkscape:label="doorwaytop1" /></g></svg>
