<?xml version="1.0" encoding="UTF-8" standalone="no"?>
<!-- Created with Inkscape (http://www.inkscape.org/) -->

<svg
   width="512"
   height="512"
   viewBox="0 0 512 512"
   version="1.1"
   id="svg5"
   xml:space="preserve"
   inkscape:version="1.2.2 (b0a8486541, 2022-12-01)"
   sodipodi:docname="sticker-newbury.svg"
   xmlns:inkscape="http://www.inkscape.org/namespaces/inkscape"
   xmlns:sodipodi="http://sodipodi.sourceforge.net/DTD/sodipodi-0.dtd"
   xmlns="http://www.w3.org/2000/svg"
   xmlns:svg="http://www.w3.org/2000/svg"><sodipodi:namedview
     id="namedview7"
     pagecolor="#ffffff"
     bordercolor="#000000"
     borderopacity="0.25"
     inkscape:showpageshadow="2"
     inkscape:pageopacity="0.0"
     inkscape:pagecheckerboard="0"
     inkscape:deskcolor="#d1d1d1"
     inkscape:document-units="px"
     showgrid="false"
     inkscape:zoom="2"
     inkscape:cx="127.5"
     inkscape:cy="236"
     inkscape:window-width="3072"
     inkscape:window-height="1659"
     inkscape:window-x="0"
     inkscape:window-y="0"
     inkscape:window-maximized="1"
     inkscape:current-layer="layer1" /><defs
     id="defs2"><filter
       inkscape:collect="always"
       style="color-interpolation-filters:sRGB"
       id="filter954"
       x="-0.048657536"
       y="-0.047360001"
       width="1.0973151"
       height="1.09472"><feGaussianBlur
         inkscape:collect="always"
         stdDeviation="0.47359972"
         id="feGaussianBlur956" /></filter><filter
       inkscape:collect="always"
       style="color-interpolation-filters:sRGB"
       id="filter964"
       x="-0.048657535"
       y="-0.047360001"
       width="1.0973151"
       height="1.09472"><feGaussianBlur
         inkscape:collect="always"
         stdDeviation="0.33151972"
         id="feGaussianBlur962" /></filter></defs><g
     inkscape:label="Background"
     inkscape:groupmode="layer"
     id="layer1"
     transform="translate(-6.9347189)"><path
       sodipodi:type="star"
       style="fill:#182132;fill-opacity:1;stroke:#9976ea;stroke-width:7.84174;stroke-dasharray:none;stroke-opacity:1"
       id="path370"
       inkscape:flatsided="true"
       sodipodi:sides="6"
       sodipodi:cx="49.263428"
       sodipodi:cy="47.501278"
       sodipodi:r1="195.61963"
       sodipodi:r2="169.41158"
       sodipodi:arg1="0.8692818"
       sodipodi:arg2="1.3928806"
       inkscape:rounded="0"
       inkscape:randomized="0"
       d="M 175.51151,196.92839 -17.020205,231.54888 -143.26829,82.121768 -76.984653,-101.92583 115.54706,-136.54632 241.79514,12.880788 Z"
       transform="matrix(0.97495933,0.82198335,-0.82198335,0.97495933,253.95014,169.5052)" /></g><g
     inkscape:groupmode="layer"
     id="layer5"
     inkscape:label="logo"
     style="display:inline"
     transform="matrix(1.3212139,0,0,1.2664623,-80.345076,-118.81121)"><path
       id="rect2482"
       style="fill:none;fill-opacity:1;stroke:#ffffff;stroke-width:3.86533647;stroke-dasharray:none;stroke-opacity:1"
       d="m 224.33158,158.17655 v 73.83399 l -34.46682,27.73633 v 79.66796 h 129.41601 v -79.66796 l -34.4902,-27.68946 v -73.88086 z"
       inkscape:label="Outline" /><path
       id="path3635"
       style="fill:none;fill-opacity:1;stroke:#a166ff;stroke-width:3.86533647;stroke-dasharray:none;stroke-opacity:1"
       d="m 236.8772,193.15922 a 17.80776,17.80776 0 0 1 -0.1122,-1.99585 17.80776,17.80776 0 0 1 17.80776,-17.80776 17.80776,17.80776 0 0 1 17.80776,17.80776 v 0 a 17.80776,17.80776 0 0 1 -17.80776,17.80776 17.80776,17.80776 0 0 1 -0.55334,-0.009"
       inkscape:label="clock" /><path
       id="path3465-2-7"
       style="fill:none;fill-opacity:1;stroke:#a166ff;stroke-width:3.86533647;stroke-dasharray:none;stroke-opacity:1"
       d="m 277.34174,273.76465 -0.0433,51.32499 17.13098,0.009"
       inkscape:label="right" /><path
       id="path3465-2"
       style="fill:none;fill-opacity:1;stroke:#a166ff;stroke-width:3.86533647;stroke-dasharray:none;stroke-opacity:1"
       d="m 231.8038,273.70642 0.0433,51.32499 -17.13098,0.009"
       inkscape:label="left" /><path
       style="fill:#000000;stroke:#ffffff;stroke-width:4.53135;stroke-dasharray:none;stroke-opacity:1"
       d="M 254.56185,156.25874 V 123.91662"
       id="path7752"
       inkscape:label="top" /><path
       style="display:inline;fill:#000000;stroke:#a166ff;stroke-width:3.86534;stroke-dasharray:none"
       d="M 284.79278,156.2438 V 136.50377"
       id="path7752-3"
       inkscape:label="top" /><path
       style="display:inline;fill:#000000;stroke:#ffffff;stroke-width:3.8673;stroke-dasharray:none;stroke-opacity:1"
       d="M 224.33413,156.26178 V 136.50175"
       id="path7752-6"
       inkscape:label="top" /></g><g
     inkscape:groupmode="layer"
     id="layer2"
     inkscape:label="Header"><text
       xml:space="preserve"
       style="font-style:normal;font-variant:normal;font-weight:300;font-stretch:normal;font-size:53.3333px;font-family:'Amazon Ember';-inkscape-font-specification:'Amazon Ember, Light';font-variant-ligatures:normal;font-variant-caps:normal;font-variant-numeric:normal;font-variant-east-asian:normal;fill:#ffffff;fill-opacity:1;stroke:none;stroke-width:10;stroke-dasharray:none;stroke-opacity:1"
       x="123.68007"
       y="361.74606"
       id="text2749"
       inkscape:label="User Group"><tspan
         sodipodi:role="line"
         id="tspan2747"
         x="123.68007"
         y="361.74606"
         style="font-style:normal;font-variant:normal;font-weight:300;font-stretch:normal;font-size:53.3333px;font-family:'Amazon Ember';-inkscape-font-specification:'Amazon Ember, Light';font-variant-ligatures:normal;font-variant-caps:normal;font-variant-numeric:normal;font-variant-east-asian:normal">User Group</tspan></text></g><g
     inkscape:groupmode="layer"
     id="layer4"
     inkscape:label="Body"><text
       xml:space="preserve"
       style="font-style:normal;font-variant:normal;font-weight:normal;font-stretch:normal;font-size:53.3333px;font-family:'Amazon Ember';-inkscape-font-specification:'Amazon Ember, Normal';font-variant-ligatures:normal;font-variant-position:normal;font-variant-caps:normal;font-variant-numeric:normal;font-variant-east-asian:normal;fill:#9976ea;fill-opacity:1;stroke-width:10"
       x="144.72012"
       y="415.54678"
       id="text1126"
       inkscape:label="Thames Valley"><tspan
         sodipodi:role="line"
         id="tspan7293"
         x="144.72012"
         y="415.54678">Newbury</tspan></text></g><g
     inkscape:groupmode="layer"
     id="layer3"
     inkscape:label="Flourish"><text
       xml:space="preserve"
       style="font-style:normal;font-variant:normal;font-weight:300;font-stretch:normal;font-size:53.3333px;font-family:'Amazon Ember';-inkscape-font-specification:'Amazon Ember, Light';font-variant-ligatures:normal;font-variant-caps:normal;font-variant-numeric:normal;font-variant-east-asian:normal;mix-blend-mode:normal;fill:#ffffff;stroke-width:10;filter:url(#filter954)"
       x="147.47826"
       y="132.31714"
       id="text952"
       inkscape:label="Plus"><tspan
         sodipodi:role="line"
         id="tspan950"
         x="147.47826"
         y="132.31714">+</tspan></text><text
       xml:space="preserve"
       style="font-style:normal;font-variant:normal;font-weight:300;font-stretch:normal;font-size:37.3333px;font-family:'Amazon Ember';-inkscape-font-specification:'Amazon Ember, Light';font-variant-ligatures:normal;font-variant-caps:normal;font-variant-numeric:normal;font-variant-east-asian:normal;mix-blend-mode:normal;fill:#ffffff;stroke-width:10;filter:url(#filter964)"
       x="106.95652"
       y="169.38875"
       id="text960"
       inkscape:label="Small Plus"><tspan
         sodipodi:role="line"
         id="tspan958"
         x="106.95652"
         y="169.38875">+</tspan></text><text
       xml:space="preserve"
       style="font-style:normal;font-variant:normal;font-weight:300;font-stretch:normal;font-size:53.3333px;font-family:'Amazon Ember';-inkscape-font-specification:'Amazon Ember, Light';font-variant-ligatures:normal;font-variant-caps:normal;font-variant-numeric:normal;font-variant-east-asian:normal;mix-blend-mode:normal;fill:#9976ea;fill-opacity:1;stroke-width:10;filter:url(#filter954)"
       x="418.62552"
       y="316.92386"
       id="text968"
       inkscape:label="Plus Purple"><tspan
         sodipodi:role="line"
         id="tspan966"
         x="418.62552"
         y="316.92386">+</tspan></text><text
       xml:space="preserve"
       style="font-style:normal;font-variant:normal;font-weight:300;font-stretch:normal;font-size:37.3333px;font-family:'Amazon Ember';-inkscape-font-specification:'Amazon Ember, Light';font-variant-ligatures:normal;font-variant-caps:normal;font-variant-numeric:normal;font-variant-east-asian:normal;mix-blend-mode:normal;fill:#9976ea;fill-opacity:1;stroke-width:10;filter:url(#filter964)"
       x="400.75565"
       y="341.33649"
       id="text972"
       inkscape:label="Small Plus Purple"><tspan
         sodipodi:role="line"
         id="tspan970"
         x="400.75565"
         y="341.33649">+</tspan></text><path
       id="path1202"
       style="fill:#ffffff;fill-opacity:1;stroke-width:1.58028"
       inkscape:label="Cloud 1"
       d="m 64.403757,326.54144 c -8.240888,0 -15.216356,4.93218 -18.568265,11.90145 -0.228876,-0.1576 -0.462807,-0.30908 -0.700965,-0.45452 v 3.66174 c 0.05278,0.0501 0.106511,0.0994 0.15785,0.15099 l 1.728238,1.77784 0.839786,-2.32127 c 2.487688,-6.71617 8.944467,-11.5558 16.543356,-11.5558 9.753269,0 17.629895,7.88311 17.629895,17.63022 0,0.72223 -0.05557,1.43202 -0.148176,2.17277 l -0.246764,1.77784 h 1.876417 c 6.043325,0 10.913794,4.87046 10.913794,10.91379 0,6.04331 -4.870469,10.91379 -10.913794,10.91379 H 45.134527 v 3.16043 h 38.380602 c 7.753248,0 14.074537,-6.32099 14.074537,-14.07422 0,-7.1915 -5.51874,-12.90757 -12.494163,-13.72857 0.02393,-0.38273 0.09889,-0.74077 0.09889,-1.13583 0,-11.457 -9.333622,-20.79065 -20.790632,-20.79065 z" /><path
       id="path1202-3"
       style="fill:#9976ea;fill-opacity:1;stroke-width:2.50157"
       inkscape:label="Cloud 2"
       d="m 467.39121,138.90056 c -9.02127,2.64715 -16.3699,9.16524 -20.40283,17.55051 -2.82408,-1.94458 -6.09764,-3.36147 -9.77179,-3.36147 -9.32226,0 -16.75855,7.37752 -17.27643,16.57273 -9.32222,3.36149 -16.1036,12.05817 -16.1036,22.51393 0,13.32864 10.82723,24.1559 24.15589,24.1559 h 39.39876 v -5.00293 h -39.39925 c -10.63165,0 -19.15247,-8.53111 -19.15247,-19.15297 0,-8.84342 5.96097,-16.28956 14.07151,-18.52729 l 1.87604,-0.46864 -0.078,-2.03257 c -0.009,-0.35176 0,-0.52763 0,-0.54716 0,-6.9477 5.55986,-12.50807 12.50757,-12.50807 3.47873,0 6.64503,1.39722 8.91204,3.67406 l 2.73628,2.8143 1.32888,-3.67405 c 2.90737,-7.84921 9.24147,-14.07508 17.19742,-16.79841 z" /></g></svg>
