<?xml version="1.0" encoding="UTF-8" standalone="no"?>
<!-- Created with Inkscape (http://www.inkscape.org/) -->

<svg
   width="512"
   height="512"
   viewBox="0 0 512 512"
   version="1.1"
   id="svg5"
   xml:space="preserve"
   inkscape:version="1.2.1 (9c6d41e410, 2022-07-14)"
   sodipodi:docname="sticker-general.svg"
   xmlns:inkscape="http://www.inkscape.org/namespaces/inkscape"
   xmlns:sodipodi="http://sodipodi.sourceforge.net/DTD/sodipodi-0.dtd"
   xmlns="http://www.w3.org/2000/svg"
   xmlns:svg="http://www.w3.org/2000/svg"><sodipodi:namedview
     id="namedview7"
     pagecolor="#ffffff"
     bordercolor="#000000"
     borderopacity="0.25"
     inkscape:showpageshadow="2"
     inkscape:pageopacity="0.0"
     inkscape:pagecheckerboard="0"
     inkscape:deskcolor="#d1d1d1"
     inkscape:document-units="px"
     showgrid="false"
     inkscape:zoom="1.7634324"
     inkscape:cx="194.79057"
     inkscape:cy="272.76351"
     inkscape:window-width="1920"
     inkscape:window-height="1011"
     inkscape:window-x="0"
     inkscape:window-y="0"
     inkscape:window-maximized="1"
     inkscape:current-layer="layer4" /><defs
     id="defs2"><filter
       inkscape:collect="always"
       style="color-interpolation-filters:sRGB"
       id="filter954"
       x="-0.048657536"
       y="-0.047360001"
       width="1.0973151"
       height="1.09472"><feGaussianBlur
         inkscape:collect="always"
         stdDeviation="0.47359972"
         id="feGaussianBlur956" /></filter><filter
       inkscape:collect="always"
       style="color-interpolation-filters:sRGB"
       id="filter964"
       x="-0.048657535"
       y="-0.047360001"
       width="1.0973151"
       height="1.09472"><feGaussianBlur
         inkscape:collect="always"
         stdDeviation="0.33151972"
         id="feGaussianBlur962" /></filter></defs><g
     inkscape:label="Background"
     inkscape:groupmode="layer"
     id="layer1"
     transform="translate(-6.9347189)"><path
       sodipodi:type="star"
       style="fill:#182132;fill-opacity:1;stroke:#9976ea;stroke-width:7.84174;stroke-dasharray:none;stroke-opacity:1"
       id="path370"
       inkscape:flatsided="true"
       sodipodi:sides="6"
       sodipodi:cx="49.263428"
       sodipodi:cy="47.501278"
       sodipodi:r1="195.61963"
       sodipodi:r2="169.41158"
       sodipodi:arg1="0.8692818"
       sodipodi:arg2="1.3928806"
       inkscape:rounded="0"
       inkscape:randomized="0"
       d="M 175.51151,196.92839 -17.020205,231.54888 -143.26829,82.121768 -76.984653,-101.92583 115.54706,-136.54632 241.79514,12.880788 Z"
       transform="matrix(0.97495933,0.82198335,-0.82198335,0.97495933,253.95014,169.5052)" /></g><g
     inkscape:groupmode="layer"
     id="layer2"
     inkscape:label="Header"><text
       xml:space="preserve"
       style="font-style:normal;font-variant:normal;font-weight:300;font-stretch:normal;font-size:53.3333px;font-family:'Amazon Ember';-inkscape-font-specification:'Amazon Ember, Light';font-variant-ligatures:normal;font-variant-caps:normal;font-variant-numeric:normal;font-variant-east-asian:normal;fill:#ffffff;fill-opacity:1;stroke:none;stroke-width:10;stroke-dasharray:none;stroke-opacity:1"
       x="123.68007"
       y="278.16879"
       id="text2749"
       inkscape:label="User Group"><tspan
         sodipodi:role="line"
         id="tspan2747"
         x="123.68007"
         y="278.16879"
         style="font-style:normal;font-variant:normal;font-weight:300;font-stretch:normal;font-size:53.3333px;font-family:'Amazon Ember';-inkscape-font-specification:'Amazon Ember, Light';font-variant-ligatures:normal;font-variant-caps:normal;font-variant-numeric:normal;font-variant-east-asian:normal">User Group</tspan></text><path
       d="m 214.66697,139.1927 c -5.96961,0 -12.03008,2.32776 -13.03964,3.60069 -0.26337,0.52673 -0.87412,4.78377 0.57439,4.78377 0.48283,0 0.70437,0.084 2.10897,-0.5744 5.2673,-2.06302 8.60463,-2.01466 9.08747,-2.01466 5.92571,-0.57063 9.34842,3.46969 8.82169,8.69309 v 3.06916 c -5.00394,-1.18514 -7.86289,-1.22595 -9.2675,-1.22595 -7.28642,-0.43894 -14.01697,3.40276 -14.01697,11.84799 0,9.26166 8.2665,11.24238 11.47077,11.11071 4.78446,0.0439 9.35082,-2.10727 12.37952,-5.83827 2.41418,5.39898 3.95116,5.04097 3.99505,5.04097 0.43895,0 0.78907,-0.17487 1.14022,-0.39435 l 2.50334,-1.75748 c 0.43894,-0.26337 0.78769,-0.69922 0.83158,-1.22595 -0.0439,-1.27293 -2.32741,-3.24816 -2.15183,-7.68146 v -13.69121 c 0.26336,-3.7749 -0.96053,-7.46887 -3.50639,-10.32198 -3.0287,-2.54586 -7.02409,-3.77181 -10.93067,-3.42065 z m 85.03632,0 c -8.77883,0 -13.82288,5.48471 -13.6912,11.05926 0,7.63758 7.72091,10.05862 8.59879,10.32198 7.41811,2.32639 8.43042,2.41075 10.49344,4.16652 1.75577,1.79966 1.53527,5.31359 -1.05448,6.84988 -0.74621,0.43894 -3.95391,2.36686 -11.19644,0.87445 -2.41418,-0.48283 -3.68299,-1.05208 -5.65822,-1.88607 -0.52673,-0.17558 -1.75749,-0.48386 -1.75749,1.14021 v 2.15185 c 0,1.00956 0.6128,1.92722 1.53459,2.36617 4.60888,2.32639 10.13988,2.41761 11.32502,2.41761 0.17558,0 10.26849,0.005 13.64834,-6.80702 0.69791,-1.40462 2.50539,-6.53269 -0.87446,-10.9221 -2.80922,-3.29206 -5.22374,-3.64356 -12.42239,-5.83827 -0.61451,-0.17557 -5.92501,-1.54144 -5.88112,-5.27243 -0.26337,-4.78446 6.23502,-5.04303 7.59575,-4.95525 5.48676,-0.0878 8.20373,1.96873 9.69614,2.10042 0.65841,0 0.96875,-0.39093 0.96875,-1.26883 v -2.02324 c 0.0439,-0.48284 -0.13098,-0.9595 -0.39434,-1.35454 -1.75576,-2.2825 -8.4726,-3.1206 -10.93067,-3.1206 z m -66.62993,1.09735 c -0.48284,0.0878 -0.83365,0.57165 -0.74585,1.05449 0.0878,0.57062 0.17487,1.14399 0.39433,1.71461 l 9.83332,32.43194 c 0.21947,1.05346 0.9156,2.19882 2.4519,2.02324 h 3.60069 c 2.19471,0.21948 2.50231,-1.8895 2.5462,-2.10897 l 6.45553,-27.03948 6.54125,27.08234 c 0.0439,0.21947 0.35252,2.32845 2.50334,2.10898 h 3.64355 c 1.5802,0.17558 2.32674,-0.96978 2.54621,-2.02325 11.06132,-35.59814 10.31135,-33.17814 10.39913,-33.52928 0.17559,-1.84356 -0.87891,-1.71565 -1.05448,-1.67176 h -3.90932 c -1.97524,-0.21946 -2.36411,1.58431 -2.4519,2.02325 l -7.28711,28.13683 -6.58413,-28.13683 c -0.30725,-2.15082 -2.06439,-2.06714 -2.50333,-2.02325 h -3.37779 c -1.93135,-0.17557 -2.41452,1.36484 -2.5462,2.02325 l -6.54126,27.74247 -7.02135,-27.74247 c -0.17558,-0.87788 -0.7486,-2.24169 -2.46048,-2.06611 z m -18.67216,20.32676 c 3.16038,0.0439 5.88833,0.52124 7.77578,0.96018 0,2.1947 0.0799,3.42581 -0.40294,5.40104 -0.61451,2.10691 -3.33046,5.9305 -9.739,6.0183 -3.68712,0.17558 -6.10061,-2.72624 -5.88113,-6.0183 -0.21948,-5.2673 5.2186,-6.5807 8.24729,-6.36122 z m 98.83897,26.82515 c -4.09697,0.0571 -8.93287,0.97486 -12.60242,3.54925 -1.13247,0.7857 -0.93398,1.87661 0.32579,1.73175 4.12605,-0.49599 13.3098,-1.60947 14.95143,0.48867 1.64603,2.09814 -1.82016,10.7542 -3.35207,14.62567 -0.47406,1.15441 0.52817,1.6323 1.58602,0.75443 6.86504,-5.75014 8.64886,-17.80422 7.24425,-19.53804 -0.70451,-0.8669 -4.05603,-1.6688 -8.15299,-1.61173 z m -122.13201,4.38941 c -0.95716,0.13168 -1.36943,1.34487 -0.36864,2.30615 17.19333,16.12671 39.91226,24.02176 65.13821,24.02176 17.99221,0 38.87958,-5.8705 53.2988,-16.93183 2.38345,-1.83916 0.35309,-4.59496 -2.09183,-3.50638 -16.1662,7.1328 -33.72482,10.5706 -49.70668,10.5706 -23.68527,0 -46.61427,-4.94488 -65.16393,-16.1774 -0.40602,-0.24579 -0.78687,-0.32678 -1.10593,-0.28289 z"
       id="AWS"
       style="fill:#ffffff;stroke-width:4.38941" /></g><g
     inkscape:groupmode="layer"
     id="layer4"
     inkscape:label="Body"><text
       xml:space="preserve"
       style="font-style:normal;font-variant:normal;font-weight:normal;font-stretch:normal;font-size:53.3333px;font-family:'Amazon Ember';-inkscape-font-specification:'Amazon Ember, Normal';font-variant-ligatures:normal;font-variant-position:normal;font-variant-caps:normal;font-variant-numeric:normal;font-variant-east-asian:normal;fill:#9976ea;fill-opacity:1;stroke-width:10"
       x="218.56004"
       y="388.93604"
       id="text1122"
       inkscape:label="UK"><tspan
         sodipodi:role="line"
         id="tspan1120"
         x="218.56004"
         y="388.93604">UK</tspan></text><text
       xml:space="preserve"
       style="font-style:normal;font-variant:normal;font-weight:normal;font-stretch:normal;font-size:53.3333px;font-family:'Amazon Ember';-inkscape-font-specification:'Amazon Ember, Normal';font-variant-ligatures:normal;font-variant-position:normal;font-variant-caps:normal;font-variant-numeric:normal;font-variant-east-asian:normal;fill:#9976ea;fill-opacity:1;stroke-width:10"
       x="81.253548"
       y="333.85907"
       id="text1126"
       inkscape:label="Thames Valley"><tspan
         sodipodi:role="line"
         id="tspan1124"
         x="81.253548"
         y="333.85907">Thames Valley</tspan></text></g><g
     inkscape:groupmode="layer"
     id="layer3"
     inkscape:label="Flourish"><text
       xml:space="preserve"
       style="font-style:normal;font-variant:normal;font-weight:300;font-stretch:normal;font-size:53.3333px;font-family:'Amazon Ember';-inkscape-font-specification:'Amazon Ember, Light';font-variant-ligatures:normal;font-variant-caps:normal;font-variant-numeric:normal;font-variant-east-asian:normal;mix-blend-mode:normal;fill:#ffffff;stroke-width:10;filter:url(#filter954)"
       x="147.47826"
       y="132.31714"
       id="text952"
       inkscape:label="Plus"><tspan
         sodipodi:role="line"
         id="tspan950"
         x="147.47826"
         y="132.31714">+</tspan></text><text
       xml:space="preserve"
       style="font-style:normal;font-variant:normal;font-weight:300;font-stretch:normal;font-size:37.3333px;font-family:'Amazon Ember';-inkscape-font-specification:'Amazon Ember, Light';font-variant-ligatures:normal;font-variant-caps:normal;font-variant-numeric:normal;font-variant-east-asian:normal;mix-blend-mode:normal;fill:#ffffff;stroke-width:10;filter:url(#filter964)"
       x="106.95652"
       y="169.38875"
       id="text960"
       inkscape:label="Small Plus"><tspan
         sodipodi:role="line"
         id="tspan958"
         x="106.95652"
         y="169.38875">+</tspan></text><text
       xml:space="preserve"
       style="font-style:normal;font-variant:normal;font-weight:300;font-stretch:normal;font-size:53.3333px;font-family:'Amazon Ember';-inkscape-font-specification:'Amazon Ember, Light';font-variant-ligatures:normal;font-variant-caps:normal;font-variant-numeric:normal;font-variant-east-asian:normal;mix-blend-mode:normal;fill:#9976ea;stroke-width:10;filter:url(#filter954);fill-opacity:1"
       x="359.18668"
       y="376.16113"
       id="text968"
       inkscape:label="Plus Purple"><tspan
         sodipodi:role="line"
         id="tspan966"
         x="359.18668"
         y="376.16113">+</tspan></text><text
       xml:space="preserve"
       style="font-style:normal;font-variant:normal;font-weight:300;font-stretch:normal;font-size:37.3333px;font-family:'Amazon Ember';-inkscape-font-specification:'Amazon Ember, Light';font-variant-ligatures:normal;font-variant-caps:normal;font-variant-numeric:normal;font-variant-east-asian:normal;mix-blend-mode:normal;fill:#9976ea;stroke-width:10;filter:url(#filter964);fill-opacity:1"
       x="298.41174"
       y="407.92581"
       id="text972"
       inkscape:label="Small Plus Purple"><tspan
         sodipodi:role="line"
         id="tspan970"
         x="298.41174"
         y="407.92581">+</tspan></text><path
       id="path1202"
       style="fill:#ffffff;fill-opacity:1;stroke-width:1.58028"
       inkscape:label="Cloud 1"
       d="m 64.403757,326.54144 c -8.240888,0 -15.216356,4.93218 -18.568265,11.90145 -0.228876,-0.1576 -0.462807,-0.30908 -0.700965,-0.45452 v 3.66174 c 0.05278,0.0501 0.106511,0.0994 0.15785,0.15099 l 1.728238,1.77784 0.839786,-2.32127 c 2.487688,-6.71617 8.944467,-11.5558 16.543356,-11.5558 9.753269,0 17.629895,7.88311 17.629895,17.63022 0,0.72223 -0.05557,1.43202 -0.148176,2.17277 l -0.246764,1.77784 h 1.876417 c 6.043325,0 10.913794,4.87046 10.913794,10.91379 0,6.04331 -4.870469,10.91379 -10.913794,10.91379 H 45.134527 v 3.16043 h 38.380602 c 7.753248,0 14.074537,-6.32099 14.074537,-14.07422 0,-7.1915 -5.51874,-12.90757 -12.494163,-13.72857 0.02393,-0.38273 0.09889,-0.74077 0.09889,-1.13583 0,-11.457 -9.333622,-20.79065 -20.790632,-20.79065 z" /><path
       id="path1202-3"
       style="fill:#9976ea;fill-opacity:1;stroke-width:2.50157"
       inkscape:label="Cloud 2"
       d="m 467.39121,138.90056 c -9.02127,2.64715 -16.3699,9.16524 -20.40283,17.55051 -2.82408,-1.94458 -6.09764,-3.36147 -9.77179,-3.36147 -9.32226,0 -16.75855,7.37752 -17.27643,16.57273 -9.32222,3.36149 -16.1036,12.05817 -16.1036,22.51393 0,13.32864 10.82723,24.1559 24.15589,24.1559 h 39.39876 v -5.00293 h -39.39925 c -10.63165,0 -19.15247,-8.53111 -19.15247,-19.15297 0,-8.84342 5.96097,-16.28956 14.07151,-18.52729 l 1.87604,-0.46864 -0.078,-2.03257 c -0.009,-0.35176 0,-0.52763 0,-0.54716 0,-6.9477 5.55986,-12.50807 12.50757,-12.50807 3.47873,0 6.64503,1.39722 8.91204,3.67406 l 2.73628,2.8143 1.32888,-3.67405 c 2.90737,-7.84921 9.24147,-14.07508 17.19742,-16.79841 z" /></g></svg>
